<?xml version="1.0" encoding="UTF-8" standalone="no"?>
<!-- Created with Inkscape (http://www.inkscape.org/) -->

<svg
   xmlns:dc="http://purl.org/dc/elements/1.1/"
   xmlns:cc="http://creativecommons.org/ns#"
   xmlns:rdf="http://www.w3.org/1999/02/22-rdf-syntax-ns#"
   xmlns:svg="http://www.w3.org/2000/svg"
   xmlns="http://www.w3.org/2000/svg"
   xmlns:sodipodi="http://sodipodi.sourceforge.net/DTD/sodipodi-0.dtd"
   xmlns:inkscape="http://www.inkscape.org/namespaces/inkscape"
   id="svg2"
   version="1.1"
   inkscape:version="0.48.5 r10040"
   width="39.31625"
   height="12.35375"
   xml:space="preserve"
   sodipodi:docname="bat.pdf"><metadata
     id="metadata8"><rdf:RDF><cc:Work
         rdf:about=""><dc:format>image/svg+xml</dc:format><dc:type
           rdf:resource="http://purl.org/dc/dcmitype/StillImage" /><dc:title></dc:title></cc:Work></rdf:RDF></metadata><defs
     id="defs6" /><sodipodi:namedview
     pagecolor="#ffffff"
     bordercolor="#666666"
     borderopacity="1"
     objecttolerance="10"
     gridtolerance="10"
     guidetolerance="10"
     inkscape:pageopacity="0"
     inkscape:pageshadow="2"
     inkscape:window-width="1920"
     inkscape:window-height="1137"
     id="namedview4"
     showgrid="false"
     inkscape:zoom="1.8127525"
     inkscape:cx="-118.74518"
     inkscape:cy="-61.007837"
     inkscape:window-x="0"
     inkscape:window-y="27"
     inkscape:window-maximized="1"
     inkscape:current-layer="g10"
     fit-margin-top="0"
     fit-margin-left="0"
     fit-margin-right="0"
     fit-margin-bottom="0" /><g
     id="g10"
     inkscape:groupmode="layer"
     inkscape:label="ink_ext_XXXXXX"
     transform="matrix(1.25,0,0,-1.25,-325.16981,239.25211)"><path
       inkscape:connector-curvature="0"
       id="path434"
       style="fill:#100f0d;fill-opacity:1;fill-rule:nonzero;stroke:none"
       d="m 276.27385,189.31469 c 0.131,0.107 0.203,0.245 0.168,0.422 -0.053,0.268 -0.053,0.483 -0.107,0.645 -0.054,0.16 -0.054,0.214 0.054,0.482 0.107,0.27 0.429,0.484 0.429,0.484 0,0 0.054,-0.214 0.215,-0.376 0.161,-0.161 0.376,-0.376 0.376,-0.376 l 0.322,0.054 0.269,0.43 0.43,0.16 c 0,0 0.107,-0.429 0.107,-0.59 0,-0.162 0.107,-0.377 0.269,-0.377 0.161,0 0.483,-0.16 0.483,-0.16 l 0.108,-0.376 c 0,0 -0.216,-0.054 -0.377,-0.162 -0.161,-0.107 -0.537,-0.268 -0.537,-0.268 0,0 -0.429,-0.054 -0.322,-0.269 0.184,-0.367 0.887,-0.736 1.25,-0.832 0.84,-0.225 1.633,0.192 2.287,0.683 0.318,0.239 0.606,0.516 0.918,0.761 0.315,0.247 0.69,0.409 0.998,0.666 0.156,0.13 0.496,0.678 0.725,0.603 0.16,-0.055 0.215,-0.269 0.215,-0.269 0,0 -0.323,-0.054 -0.377,-0.215 -0.103,-0.314 1.554,-0.412 1.711,-0.423 1.33,-0.098 2.56,-0.165 3.772,-0.78 0.367,-0.187 0.767,-0.303 1.129,-0.5 0.145,-0.08 0.285,-0.168 0.41,-0.277 0.064,-0.057 0.333,-0.455 0.39,-0.46 -0.953,0.083 -1.717,0.573 -2.69,0.223 -0.83,-0.299 -1.376,-0.986 -1.499,-1.865 0.025,0.174 -0.577,0.184 -0.643,0.175 -0.282,-0.038 -0.539,-0.199 -0.811,-0.277 -0.553,-0.159 -1.191,-0.181 -1.646,-0.571 -0.339,-0.291 -0.526,-0.702 -0.743,-1.084 -0.14,-0.247 -0.367,-0.434 -0.494,-0.69 0.103,0.672 -0.593,1.225 -1.188,1.333 -0.737,0.134 -1.688,-0.094 -2.337,-0.434 -0.657,-0.343 -1.349,-0.622 -1.982,-1.009 -0.499,-0.301 -1.49,-0.963 -1.49,-1.633 0,-0.268 0.108,-0.376 -0.107,-0.484 -0.215,-0.107 -0.537,-0.16 -0.537,-0.16 l -0.269,0.322 0,0.214 c 0,0 0.269,-0.053 0.322,0.108 0.054,0.16 0.268,0.268 0.163,0.482 -0.127,0.259 -0.217,0.612 -0.402,0.834 -0.335,0.399 -1.013,0.49 -1.478,0.328 -0.332,-0.115 -0.667,-0.355 -0.924,-0.59 -0.345,-0.315 -0.219,-0.713 -0.474,-1.054 -0.156,-0.208 -0.173,-0.293 -0.42,-0.316 -0.191,-0.019 -0.394,0.044 -0.441,0.245 -0.067,0.284 0.258,0.434 0.432,0.608 0.161,0.161 0.214,0.268 0.214,0.43 0,0.161 0.107,0.801 0.108,0.806 0.057,0.351 -0.268,0.957 -0.572,1.112 -0.321,0.162 -0.745,0.133 -1.077,0.03 -0.152,-0.047 -0.879,-0.41 -0.768,-0.659 -0.099,0.225 -0.21,0.459 -0.269,0.698 -0.195,0.779 -0.801,1.443 -1.611,1.535 -0.647,0.073 -1.346,0.215 -1.981,-0.008 -0.256,-0.092 -0.49,-0.283 -0.722,-0.418 0.037,0.209 0.197,0.507 0.07,0.717 -0.488,0.815 -1.297,0.875 -2.162,0.912 -0.527,0.022 -1.049,0.097 -1.574,0.011 -0.506,-0.083 -0.974,-0.289 -1.451,-0.46 0.377,0.19 0.661,0.51 1.003,0.751 0.488,0.344 0.995,0.655 1.557,0.862 0.668,0.244 1.341,0.475 2.013,0.707 0.698,0.241 1.347,0.637 2.065,0.816 0.509,0.128 1.068,0.113 1.588,0.166 0.709,0.071 1.407,0.138 2.118,0.049 0.429,-0.054 0.591,-0.054 0.751,-0.054 0.162,0 0.43,0.161 0.27,0.269 -0.162,0.108 -0.537,0.215 -0.537,0.215 l 0.215,0.215 0.375,-0.108 c 0,0 0.162,-0.269 0.162,-0.43 0,-0.161 0.053,-0.376 0.053,-0.376 0,0 0.269,-0.375 0.591,-0.537 0.322,-0.16 0.484,-0.322 0.86,-0.536 0.567,-0.325 1.166,-0.513 1.823,-0.458 0.284,0.023 0.921,0.103 1.231,0.358" /></g></svg>